<svg width="21" height="20" viewBox="0 0 21 20" fill="none" xmlns="http://www.w3.org/2000/svg">
<path d="M17.6816 9.63992C16.4341 7.47075 14.6866 5.98992 12.7091 5.35409C13.2833 4.80075 13.9233 4.02159 14.5566 2.91325C14.7741 2.53325 14.66 2.04992 14.2958 1.80659C14.2366 1.76659 12.8091 0.833252 10.5 0.833252C8.19079 0.833252 6.76413 1.76659 6.70413 1.80659C6.33913 2.04992 6.22579 2.53325 6.44329 2.91325C7.07663 4.02159 7.71746 4.80159 8.29079 5.35409C6.31329 5.98992 4.56496 7.47075 3.31829 9.63992C2.29079 11.4283 1.97413 13.4024 2.42663 15.1966C3.13829 18.0166 5.47663 19.1666 10.5 19.1666C15.5233 19.1666 17.8625 18.0166 18.5733 15.1974C19.0258 13.4024 18.7091 11.4291 17.6816 9.63992ZM10.5 2.49992C11.4066 2.49992 12.1341 2.67992 12.63 2.85659C11.7141 4.19992 10.8816 4.74075 10.5 4.93409C10.1183 4.74075 9.28579 4.19992 8.36996 2.85659C8.86663 2.67992 9.59329 2.49992 10.5 2.49992ZM16.9575 14.7899C16.6275 16.1008 15.8283 17.4999 10.5 17.4999C5.17163 17.4999 4.37246 16.1008 4.04246 14.7891C3.69579 13.4166 3.95246 11.8824 4.76329 10.4699C5.57996 9.04992 7.41163 6.66659 10.5 6.66659C13.5883 6.66659 15.4191 9.04992 16.2366 10.4699C17.0483 11.8816 17.3041 13.4158 16.9575 14.7899ZM12.7991 13.4358C12.7991 14.4274 12.1941 15.2808 11.3333 15.6449V15.8333C11.3333 16.2941 10.9608 16.6666 10.5 16.6666C10.0391 16.6666 9.66663 16.2941 9.66663 15.8333V15.7174C8.96829 15.4916 8.39496 14.9516 8.14163 14.2358C7.98746 13.8016 8.21496 13.3249 8.64829 13.1724C9.08413 13.0191 9.55996 13.2458 9.71163 13.6791C9.81496 13.9708 10.0925 14.1666 10.4016 14.1666C10.8041 14.1666 11.1316 13.8383 11.1316 13.4358C11.1316 13.0799 10.8533 12.7324 10.4958 12.7241C9.28496 12.7241 8.29996 11.7391 8.29996 10.5283C8.29996 9.61159 8.86579 8.82575 9.66579 8.49825V8.33325C9.66579 7.87242 10.0383 7.49992 10.4991 7.49992C10.96 7.49992 11.3325 7.87242 11.3325 8.33325V8.50492C11.635 8.62992 11.9108 8.81659 12.1325 9.06575C12.4391 9.40909 12.4091 9.93659 12.0658 10.2424C11.7225 10.5474 11.195 10.5191 10.8891 10.1758C10.7883 10.0624 10.6483 9.99992 10.4958 9.99992C10.2041 9.99992 9.96663 10.2374 9.96663 10.5291C9.96579 10.8424 10.2408 11.0899 10.545 11.0433C11.8083 11.1183 12.7975 12.1699 12.7975 13.4358H12.7991Z" fill="url(#paint0_linear_8255_1720)"/>
<defs>
<linearGradient id="paint0_linear_8255_1720" x1="10.5" y1="0.833252" x2="10.5" y2="19.1666" gradientUnits="userSpaceOnUse">
<stop offset="0.610577" stop-color="#69FFEB"/>
<stop offset="1" stop-color="#A1D0D4"/>
</linearGradient>
</defs>
</svg>
