<svg width="45" height="44" viewBox="0 0 45 44" fill="none" xmlns="http://www.w3.org/2000/svg">
<path d="M8.5 0.5H36.5C40.6421 0.5 44 3.85786 44 8V36C44 40.1421 40.6421 43.5 36.5 43.5H8.5C4.35786 43.5 1 40.1421 1 36V8C1 3.85786 4.35786 0.5 8.5 0.5Z" fill="#1B1B1B"/>
<path d="M8.5 0.5H36.5C40.6421 0.5 44 3.85786 44 8V36C44 40.1421 40.6421 43.5 36.5 43.5H8.5C4.35786 43.5 1 40.1421 1 36V8C1 3.85786 4.35786 0.5 8.5 0.5Z" stroke="url(#paint0_linear_8255_1667)"/>
<path d="M23 12C21.0222 12 19.0888 12.5865 17.4443 13.6853C15.7998 14.7841 14.5181 16.3459 13.7612 18.1732C13.0043 20.0004 12.8063 22.0111 13.1922 23.9509C13.578 25.8907 14.5304 27.6725 15.9289 29.0711C17.3275 30.4696 19.1093 31.422 21.0491 31.8079C22.9889 32.1937 24.9996 31.9957 26.8268 31.2388C28.6541 30.4819 30.2159 29.2002 31.3147 27.5557C32.4135 25.9112 33 23.9778 33 22C32.9971 19.3487 31.9426 16.8068 30.0679 14.9321C28.1932 13.0574 25.6513 12.0029 23 12ZM23 30.3333C21.3518 30.3333 19.7407 29.8446 18.3703 28.9289C16.9998 28.0132 15.9317 26.7117 15.301 25.189C14.6703 23.6663 14.5053 21.9908 14.8268 20.3742C15.1483 18.7577 15.942 17.2729 17.1074 16.1074C18.2729 14.942 19.7577 14.1483 21.3743 13.8268C22.9908 13.5052 24.6663 13.6703 26.189 14.301C27.7118 14.9317 29.0132 15.9998 29.9289 17.3702C30.8446 18.7407 31.3333 20.3518 31.3333 22C31.3309 24.2094 30.4522 26.3276 28.8899 27.8899C27.3276 29.4522 25.2094 30.3309 23 30.3333Z" fill="url(#paint1_linear_8255_1667)"/>
<path d="M23 17C22.779 17 22.567 17.0878 22.4107 17.2441C22.2545 17.4004 22.1667 17.6123 22.1667 17.8333V21.4375L19.3575 23.1975C19.1696 23.3149 19.0361 23.502 18.9862 23.7179C18.9364 23.9337 18.9743 24.1605 19.0917 24.3483C19.209 24.5362 19.3962 24.6697 19.612 24.7196C19.8278 24.7694 20.0546 24.7315 20.2425 24.6142L23.4425 22.6142C23.5634 22.5384 23.6628 22.4329 23.7313 22.3077C23.7997 22.1825 23.8348 22.0418 23.8333 21.8992V17.8333C23.8333 17.6123 23.7455 17.4004 23.5893 17.2441C23.433 17.0878 23.221 17 23 17Z" fill="url(#paint2_linear_8255_1667)"/>
<defs>
<linearGradient id="paint0_linear_8255_1667" x1="22.5" y1="0" x2="22.5" y2="44" gradientUnits="userSpaceOnUse">
<stop stop-color="#44FBF0"/>
<stop offset="1" stop-color="#44FBF0" stop-opacity="0.3"/>
</linearGradient>
<linearGradient id="paint1_linear_8255_1667" x1="23" y1="12" x2="23" y2="32" gradientUnits="userSpaceOnUse">
<stop offset="0.600962" stop-color="white"/>
<stop offset="1" stop-color="white" stop-opacity="0.6"/>
</linearGradient>
<linearGradient id="paint2_linear_8255_1667" x1="23" y1="12" x2="23" y2="32" gradientUnits="userSpaceOnUse">
<stop offset="0.600962" stop-color="white"/>
<stop offset="1" stop-color="white" stop-opacity="0.6"/>
</linearGradient>
</defs>
</svg>
