<svg width="21" height="20" viewBox="0 0 21 20" fill="none" xmlns="http://www.w3.org/2000/svg">
<path d="M6.75 17.5H4.5C4.10218 17.5 3.72064 17.342 3.43934 17.0607C3.15804 16.7794 3 16.3978 3 16V10.75C3 10.3522 3.15804 9.97064 3.43934 9.68934C3.72064 9.40804 4.10218 9.25 4.5 9.25H6.75M12 7.75V4.75C12 4.15326 11.7629 3.58097 11.341 3.15901C10.919 2.73705 10.3467 2.5 9.75 2.5L6.75 9.25V17.5H15.21C15.5717 17.5041 15.9228 17.3773 16.1984 17.143C16.4741 16.9087 16.6558 16.5827 16.71 16.225L17.745 9.475C17.7776 9.26002 17.7631 9.04051 17.7025 8.83169C17.6419 8.62287 17.5366 8.42972 17.3939 8.26564C17.2512 8.10155 17.0746 7.97045 16.8762 7.88141C16.6778 7.79238 16.4624 7.74754 16.245 7.75H12Z" stroke="#98FCE4" stroke-width="1.5" stroke-linecap="round" stroke-linejoin="round"/>
</svg>
