<svg width="20" height="21" viewBox="0 0 20 21" fill="none" xmlns="http://www.w3.org/2000/svg">
<g clip-path="url(#clip0_8255_1725)">
<path d="M7.72669 3.98828C7.41169 3.65328 7.42669 3.12578 7.76169 2.80995L9.74586 0.939948C10.3367 0.347448 11.3284 0.348281 11.9375 0.957448L13.9042 2.80995C14.2392 3.12578 14.255 3.65328 13.9392 3.98828C13.775 4.16245 13.5542 4.24995 13.3325 4.24995C13.1275 4.24995 12.9217 4.17495 12.7609 4.02328L11.6659 2.99161V7.16661C11.6659 7.62661 11.2925 7.99995 10.8325 7.99995C10.3725 7.99995 9.99919 7.62661 9.99919 7.16661V2.99078L8.90419 4.02328C8.57002 4.33745 8.04169 4.32411 7.72586 3.98828H7.72669ZM1.40502 5.68995L2.50002 4.65745V7.16661C2.50002 7.62661 2.87336 7.99995 3.33336 7.99995C3.79336 7.99995 4.16669 7.62661 4.16669 7.16661V4.65828L5.26169 5.68995C5.42252 5.84161 5.62752 5.91662 5.83336 5.91662C6.05502 5.91662 6.27586 5.82911 6.44002 5.65495C6.75502 5.31995 6.74002 4.79245 6.40502 4.47661L4.43836 2.62411C3.82836 2.01495 2.83836 2.01411 2.24669 2.60661L0.26169 4.47661C-0.0733095 4.79245 -0.0891429 5.31995 0.22669 5.65495C0.542524 5.99078 1.07086 6.00495 1.40502 5.68995ZM19.3634 11.3458L13.6925 17.7108C12.1125 19.4841 9.84419 20.5008 7.47086 20.5008H3.33336C1.49502 20.5008 2.38138e-05 19.0058 2.38138e-05 17.1674V13.0008C2.38138e-05 11.1624 1.49502 9.66745 3.33336 9.66745H10.715C11.6642 9.66745 12.4967 10.1749 12.9559 10.9333L15.6359 7.98828C16.0875 7.49245 16.7042 7.20161 17.3742 7.17078C18.0475 7.13578 18.6859 7.37078 19.1809 7.82245C20.1925 8.74495 20.2742 10.3249 19.3634 11.3458ZM18.0584 9.05328C17.8925 8.90161 17.6759 8.82495 17.4517 8.83495C17.2267 8.84578 17.02 8.94245 16.8684 9.10911L13.18 13.1624C12.8592 14.0541 12.0642 14.7383 11.0842 14.8783L6.78419 15.4924C6.33002 15.5583 5.90669 15.2416 5.84169 14.7849C5.77669 14.3291 6.09336 13.9066 6.54836 13.8416L10.8492 13.2274C11.3159 13.1616 11.6667 12.7566 11.6667 12.2858C11.6667 11.7608 11.24 11.3333 10.715 11.3333H3.33336C2.41419 11.3333 1.66669 12.0808 1.66669 12.9999V17.1666C1.66669 18.0858 2.41419 18.8333 3.33336 18.8333H7.47086C9.37002 18.8333 11.1842 18.0191 12.4484 16.6016L18.1192 10.2366C18.425 9.89328 18.3975 9.36245 18.0584 9.05245V9.05328Z" fill="url(#paint0_linear_8255_1725)"/>
</g>
<defs>
<linearGradient id="paint0_linear_8255_1725" x1="9.9981" y1="0.498047" x2="9.9981" y2="20.5008" gradientUnits="userSpaceOnUse">
<stop offset="0.610577" stop-color="#69FFEB"/>
<stop offset="1" stop-color="#A1D0D4"/>
</linearGradient>
<clipPath id="clip0_8255_1725">
<rect width="20" height="20" fill="white" transform="translate(0 0.5)"/>
</clipPath>
</defs>
</svg>
