<svg width="20" height="20" viewBox="0 0 20 20" fill="none" xmlns="http://www.w3.org/2000/svg">
<g clip-path="url(#clip0_2_110)">
<path d="M16.9308 3.64164C15.6558 3.05664 14.2892 2.62581 12.86 2.37914C12.8342 2.37414 12.8083 2.38664 12.7942 2.40998C12.6183 2.72248 12.4233 3.13081 12.2875 3.45081C10.75 3.22081 9.22083 3.22081 7.715 3.45081C7.57916 3.12331 7.37666 2.72248 7.20083 2.40998C7.18666 2.38664 7.16083 2.37498 7.135 2.37914C5.70666 2.62498 4.34 3.05581 3.06416 3.64164C3.05333 3.64581 3.04333 3.65414 3.0375 3.66414C0.444996 7.53748 -0.265837 11.3158 0.0824964 15.0475C0.0841631 15.0658 0.0941631 15.0833 0.10833 15.0941C1.81916 16.3508 3.47583 17.1133 5.1025 17.6183C5.12833 17.6266 5.15583 17.6166 5.1725 17.595C5.5575 17.07 5.9 16.5158 6.19416 15.9333C6.21166 15.8991 6.195 15.8583 6.15916 15.845C5.615 15.6383 5.0975 15.3866 4.59916 15.1016C4.56 15.0783 4.55666 15.0225 4.5925 14.995C4.6975 14.9166 4.8025 14.835 4.9025 14.7525C4.92083 14.7375 4.94583 14.7341 4.9675 14.7441C8.24083 16.2383 11.7842 16.2383 15.0183 14.7441C15.04 14.7341 15.065 14.7366 15.0842 14.7525C15.1842 14.835 15.2892 14.9175 15.395 14.9958C15.4317 15.0225 15.4292 15.0791 15.3892 15.1025C14.8908 15.3933 14.3733 15.64 13.8283 15.845C13.7925 15.8583 13.7775 15.9 13.7942 15.9341C14.0942 16.5158 14.4375 17.07 14.815 17.595C14.8308 17.6175 14.8592 17.6266 14.885 17.6191C16.5192 17.1133 18.1767 16.3508 19.8867 15.095C19.9017 15.0841 19.9108 15.0675 19.9125 15.0491C20.3292 10.735 19.2142 6.98748 16.9558 3.66581C16.9517 3.65414 16.9417 3.64581 16.9308 3.64164ZM6.68333 12.7758C5.6975 12.7758 4.88583 11.8708 4.88583 10.76C4.88583 9.64914 5.68166 8.74414 6.68333 8.74414C7.6925 8.74414 8.49666 9.65664 8.48083 10.76C8.48083 11.8716 7.68416 12.7758 6.68333 12.7758ZM13.3292 12.7758C12.3442 12.7758 11.5317 11.8708 11.5317 10.76C11.5317 9.64914 12.3275 8.74414 13.3292 8.74414C14.3383 8.74414 15.1425 9.65664 15.1267 10.76C15.1267 11.8716 14.3383 12.7758 13.3292 12.7758Z" fill="white"/>
</g>
<defs>
<clipPath id="clip0_2_110">
<rect width="20" height="20" fill="white"/>
</clipPath>
</defs>
</svg>
