<svg width="40" height="40" viewBox="0 0 40 40" fill="none" xmlns="http://www.w3.org/2000/svg">
<g clip-path="url(#clip0_9963_290)">
<g filter="url(#filter0_d_9963_290)">
<path d="M6.9043 12.4399L19.9993 20.0149L33.0943 12.4399M20 35.1199V19.9999M33.5 25.9999V13.9999C33.4995 13.4738 33.3606 12.9571 33.0973 12.5016C32.834 12.0461 32.4556 11.6679 32 11.4049L21.5 5.40485C21.0439 5.14155 20.5266 5.00293 20 5.00293C19.4734 5.00293 18.9561 5.14155 18.5 5.40485L8 11.4049C7.54439 11.6679 7.16597 12.0461 6.90269 12.5016C6.63941 12.9571 6.50054 13.4738 6.5 13.9999V25.9999C6.50054 26.5259 6.63941 27.0426 6.90269 27.4981C7.16597 27.9536 7.54439 28.3318 8 28.5949L18.5 34.5949C18.9561 34.8582 19.4734 34.9968 20 34.9968C20.5266 34.9968 21.0439 34.8582 21.5 34.5949L32 28.5949C32.4556 28.3318 32.834 27.9536 33.0973 27.4981C33.3606 27.0426 33.4995 26.5259 33.5 25.9999Z" stroke="url(#paint0_linear_9963_290)" stroke-width="3" stroke-linecap="round" stroke-linejoin="round" shape-rendering="crispEdges"/>
</g>
</g>
<defs>
<filter id="filter0_d_9963_290" x="1" y="0.50293" width="38" height="41.1169" filterUnits="userSpaceOnUse" color-interpolation-filters="sRGB">
<feFlood flood-opacity="0" result="BackgroundImageFix"/>
<feColorMatrix in="SourceAlpha" type="matrix" values="0 0 0 0 0 0 0 0 0 0 0 0 0 0 0 0 0 0 127 0" result="hardAlpha"/>
<feOffset dy="1"/>
<feGaussianBlur stdDeviation="2"/>
<feComposite in2="hardAlpha" operator="out"/>
<feColorMatrix type="matrix" values="0 0 0 0 1 0 0 0 0 1 0 0 0 0 1 0 0 0 1 0"/>
<feBlend mode="normal" in2="BackgroundImageFix" result="effect1_dropShadow_9963_290"/>
<feBlend mode="normal" in="SourceGraphic" in2="effect1_dropShadow_9963_290" result="shape"/>
</filter>
<linearGradient id="paint0_linear_9963_290" x1="20.5" y1="4.99988" x2="20.5" y2="35.1199" gradientUnits="userSpaceOnUse">
<stop stop-color="white"/>
<stop offset="1" stop-color="#525866"/>
</linearGradient>
<clipPath id="clip0_9963_290">
<rect width="40" height="40" fill="white"/>
</clipPath>
</defs>
</svg>
