<svg width="40" height="40" viewBox="0 0 40 40" fill="none" xmlns="http://www.w3.org/2000/svg">
<g clip-path="url(#clip0_9963_4)">
<g filter="url(#filter0_d_9963_4)">
<path d="M15.8334 12.4999H22.9167C24.9878 12.4999 26.6667 14.1789 26.6667 16.2499C26.6667 18.321 24.9878 19.9999 22.9167 19.9999H15.8334H23.75C25.8211 19.9999 27.5 21.6789 27.5 23.7499C27.5 25.821 25.8211 27.4999 23.75 27.4999H15.8334M15.8334 12.4999H13.3334M15.8334 12.4999V27.4999M15.8334 27.4999H13.3334M16.6667 9.99992V12.4999M16.6667 27.4999V29.9999M21.6667 9.99992V12.4999M21.6667 27.4999V29.9999M36.6667 19.9999C36.6667 29.2047 29.2048 36.6666 20 36.6666C10.7953 36.6666 3.33337 29.2047 3.33337 19.9999C3.33337 10.7952 10.7953 3.33325 20 3.33325C29.2048 3.33325 36.6667 10.7952 36.6667 19.9999Z" stroke="url(#paint0_linear_9963_4)" stroke-width="3" stroke-linecap="round" stroke-linejoin="round" shape-rendering="crispEdges"/>
</g>
</g>
<defs>
<filter id="filter0_d_9963_4" x="-2.16663" y="-1.16675" width="44.3334" height="44.3333" filterUnits="userSpaceOnUse" color-interpolation-filters="sRGB">
<feFlood flood-opacity="0" result="BackgroundImageFix"/>
<feColorMatrix in="SourceAlpha" type="matrix" values="0 0 0 0 0 0 0 0 0 0 0 0 0 0 0 0 0 0 127 0" result="hardAlpha"/>
<feOffset dy="1"/>
<feGaussianBlur stdDeviation="2"/>
<feComposite in2="hardAlpha" operator="out"/>
<feColorMatrix type="matrix" values="0 0 0 0 0.054902 0 0 0 0 0.0705882 0 0 0 0 0.105882 0 0 0 1 0"/>
<feBlend mode="normal" in2="BackgroundImageFix" result="effect1_dropShadow_9963_4"/>
<feBlend mode="normal" in="SourceGraphic" in2="effect1_dropShadow_9963_4" result="shape"/>
</filter>
<linearGradient id="paint0_linear_9963_4" x1="20.6173" y1="3.32987" x2="20.6173" y2="36.6666" gradientUnits="userSpaceOnUse">
<stop stop-color="white"/>
<stop offset="1" stop-color="#525866"/>
</linearGradient>
<clipPath id="clip0_9963_4">
<rect width="40" height="40" fill="white"/>
</clipPath>
</defs>
</svg>
