<svg width="45" height="44" viewBox="0 0 45 44" fill="none" xmlns="http://www.w3.org/2000/svg">
<path d="M8.5 0.5H36.5C40.6421 0.5 44 3.85786 44 8V36C44 40.1421 40.6421 43.5 36.5 43.5H8.5C4.35786 43.5 1 40.1421 1 36V8C1 3.85786 4.35786 0.5 8.5 0.5Z" fill="#1B1B1B"/>
<path d="M8.5 0.5H36.5C40.6421 0.5 44 3.85786 44 8V36C44 40.1421 40.6421 43.5 36.5 43.5H8.5C4.35786 43.5 1 40.1421 1 36V8C1 3.85786 4.35786 0.5 8.5 0.5Z" stroke="url(#paint0_linear_8255_1674)"/>
<g clip-path="url(#clip0_8255_1674)">
<path d="M14.0325 19.979L21.1583 24.0182C21.7267 24.3407 22.3633 24.5015 23 24.5015C23.6367 24.5015 24.2742 24.3407 24.8425 24.0182L31.9675 19.9782C32.6142 19.6115 33 18.9657 33 18.249C33 17.5324 32.6142 16.8865 31.9675 16.5199L24.8425 12.4815C23.7075 11.8382 22.2942 11.8382 21.1583 12.4815L14.0325 16.5207C13.3858 16.8874 13 17.5332 13 18.2499C13 18.9665 13.3858 19.6124 14.0325 19.979ZM24.0208 22.5682C23.4008 22.9199 22.5992 22.9199 21.98 22.5682L19.4708 21.1457L24.0483 18.5665L27.5742 20.5532L24.02 22.5682H24.0208ZM31.3333 18.2499C31.3333 18.314 31.3092 18.4365 31.145 18.5282L29.2667 19.5932L25.7458 17.6099L28.135 16.264L31.1458 17.9715C31.3092 18.064 31.3333 18.1857 31.3333 18.2499ZM21.98 13.9315C22.29 13.7557 22.645 13.6682 23 13.6682C23.355 13.6682 23.7108 13.7557 24.0208 13.9315L26.4425 15.3049L21.815 17.9124L18.3767 15.9749L21.9808 13.9315H21.98ZM14.8542 17.9715L16.6842 16.934L20.1175 18.869L17.7792 20.1865L14.855 18.5282C14.6917 18.4357 14.6675 18.314 14.6675 18.2499C14.6675 18.1857 14.6917 18.0632 14.855 17.9715H14.8542ZM32.8858 22.1349C33.1175 22.5324 32.9842 23.0424 32.5875 23.2749L24.8525 27.8024C24.2783 28.1282 23.6375 28.2907 22.9975 28.2907C22.3575 28.2907 21.725 28.1299 21.1583 27.8082L13.425 23.4599C13.0242 23.234 12.8817 22.7265 13.1075 22.3249C13.3333 21.9232 13.84 21.7807 14.2425 22.0074L21.9783 26.3565C22.6 26.709 23.4017 26.709 24.0217 26.3574L31.7475 21.8357C32.1425 21.6024 32.6542 21.7365 32.8875 22.1332L32.8858 22.1349ZM32.8858 25.8465C33.1175 26.244 32.9842 26.754 32.5875 26.9865L24.8525 31.514C24.2783 31.8399 23.6375 32.0024 22.9975 32.0024C22.3575 32.0024 21.725 31.8415 21.1583 31.519L13.425 27.1707C13.0242 26.9449 12.8817 26.4374 13.1075 26.0357C13.3333 25.6349 13.84 25.4915 14.2425 25.7182L21.9783 30.0674C22.6 30.4199 23.4017 30.4199 24.0217 30.0682L31.7475 25.5465C32.1425 25.3149 32.6542 25.4465 32.8875 25.8449L32.8858 25.8465Z" fill="url(#paint1_linear_8255_1674)"/>
</g>
<defs>
<linearGradient id="paint0_linear_8255_1674" x1="22.5" y1="0" x2="22.5" y2="44" gradientUnits="userSpaceOnUse">
<stop stop-color="#44FBF0"/>
<stop offset="1" stop-color="#44FBF0" stop-opacity="0.3"/>
</linearGradient>
<linearGradient id="paint1_linear_8255_1674" x1="23" y1="11.999" x2="23" y2="32.0024" gradientUnits="userSpaceOnUse">
<stop offset="0.600962" stop-color="white"/>
<stop offset="1" stop-color="white" stop-opacity="0.6"/>
</linearGradient>
<clipPath id="clip0_8255_1674">
<rect width="20" height="20" fill="white" transform="translate(13 12)"/>
</clipPath>
</defs>
</svg>
