<svg width="21" height="20" viewBox="0 0 21 20" fill="none" xmlns="http://www.w3.org/2000/svg">
<g clip-path="url(#clip0_8255_1710)">
<path d="M10.5 4.16667C10.9608 4.16667 11.3333 4.53917 11.3333 5V9.89667C11.3333 10.1875 11.1825 10.4558 10.9342 10.6083L7.26083 12.855C7.12583 12.9383 6.975 12.9767 6.82667 12.9767C6.54583 12.9767 6.2725 12.835 6.115 12.5775C5.875 12.185 5.99833 11.6725 6.39167 11.4317L9.66667 9.42917V5C9.66667 4.53917 10.0392 4.16667 10.5 4.16667ZM18.8333 10.8333H15.5C15.0392 10.8333 14.6667 11.2058 14.6667 11.6667C14.6667 12.1275 15.0392 12.5 15.5 12.5H17.64L14.0325 16.1067C13.8717 16.2675 13.5875 16.2683 13.425 16.1067L12.505 15.1867C11.7125 14.3925 10.3317 14.3925 9.53667 15.1867L6.15917 18.5783C5.83417 18.905 5.83583 19.4325 6.16167 19.7575C6.32417 19.9192 6.5375 20 6.75 20C6.96417 20 7.17833 19.9175 7.34083 19.755L10.7175 16.3633C10.8783 16.2025 11.1625 16.2017 11.325 16.3633L12.245 17.2833C13.0375 18.0775 14.42 18.0767 15.2117 17.2833L18.8333 13.6625V15.8325C18.8333 16.2933 19.2058 16.6658 19.6667 16.6658C20.1275 16.6658 20.5 16.2933 20.5 15.8325V12.4992C20.5 11.58 19.7525 10.8325 18.8333 10.8325V10.8333ZM2.16667 10C2.16667 5.405 5.905 1.66667 10.5 1.66667C14.5233 1.66667 17.97 4.53333 18.6958 8.48417C18.78 8.93667 19.2092 9.24167 19.6658 9.15333C20.1183 9.07 20.4175 8.63583 20.335 8.18333C19.4642 3.44167 15.3275 0 10.5 0C4.98583 0 0.5 4.48583 0.5 10C0.5 12.7633 1.66 15.43 3.68167 17.315C3.84167 17.465 4.04667 17.5392 4.25 17.5392C4.47333 17.5392 4.695 17.4508 4.85917 17.2742C5.17333 16.9383 5.15417 16.4108 4.8175 16.0967C3.13333 14.525 2.16583 12.3033 2.16583 10.0008L2.16667 10Z" fill="url(#paint0_linear_8255_1710)"/>
</g>
<defs>
<linearGradient id="paint0_linear_8255_1710" x1="10.5" y1="0" x2="10.5" y2="20" gradientUnits="userSpaceOnUse">
<stop offset="0.610577" stop-color="#69FFEB"/>
<stop offset="1" stop-color="#A1D0D4"/>
</linearGradient>
<clipPath id="clip0_8255_1710">
<rect width="20" height="20" fill="white" transform="translate(0.5)"/>
</clipPath>
</defs>
</svg>
