<svg width="164" height="164" viewBox="0 0 164 164" fill="none" xmlns="http://www.w3.org/2000/svg">
<g filter="url(#filter0_dii_10557_1679)">
<rect x="22" y="10" width="120" height="120" rx="24" fill="#23282B"/>
<rect x="22" y="10" width="120" height="120" rx="24" stroke="url(#paint0_linear_10557_1679)" stroke-width="3"/>
<path d="M82 106H53C49.134 106 46 102.866 46 99V70L82 106ZM118 70L82 106V77C82 73.134 85.134 70 89 70H118ZM46 70V41C46 37.134 49.134 34 53 34H82L46 70ZM111 34C114.866 34 118 37.134 118 41V70L82 34H111Z" fill="#98FCE4"/>
</g>
<defs>
<filter id="filter0_dii_10557_1679" x="0.5" y="0.5" width="163" height="163" filterUnits="userSpaceOnUse" color-interpolation-filters="sRGB">
<feFlood flood-opacity="0" result="BackgroundImageFix"/>
<feColorMatrix in="SourceAlpha" type="matrix" values="0 0 0 0 0 0 0 0 0 0 0 0 0 0 0 0 0 0 127 0" result="hardAlpha"/>
<feOffset dy="12"/>
<feGaussianBlur stdDeviation="10"/>
<feComposite in2="hardAlpha" operator="out"/>
<feColorMatrix type="matrix" values="0 0 0 0 0 0 0 0 0 0 0 0 0 0 0 0 0 0 1 0"/>
<feBlend mode="normal" in2="BackgroundImageFix" result="effect1_dropShadow_10557_1679"/>
<feBlend mode="normal" in="SourceGraphic" in2="effect1_dropShadow_10557_1679" result="shape"/>
<feColorMatrix in="SourceAlpha" type="matrix" values="0 0 0 0 0 0 0 0 0 0 0 0 0 0 0 0 0 0 127 0" result="hardAlpha"/>
<feOffset/>
<feGaussianBlur stdDeviation="5.76923"/>
<feComposite in2="hardAlpha" operator="arithmetic" k2="-1" k3="1"/>
<feColorMatrix type="matrix" values="0 0 0 0 1 0 0 0 0 1 0 0 0 0 1 0 0 0 0.1 0"/>
<feBlend mode="normal" in2="shape" result="effect2_innerShadow_10557_1679"/>
<feColorMatrix in="SourceAlpha" type="matrix" values="0 0 0 0 0 0 0 0 0 0 0 0 0 0 0 0 0 0 127 0" result="hardAlpha"/>
<feOffset dx="1.15385" dy="1.15385"/>
<feGaussianBlur stdDeviation="0.576923"/>
<feComposite in2="hardAlpha" operator="arithmetic" k2="-1" k3="1"/>
<feColorMatrix type="matrix" values="0 0 0 0 1 0 0 0 0 1 0 0 0 0 1 0 0 0 0.1 0"/>
<feBlend mode="normal" in2="effect2_innerShadow_10557_1679" result="effect3_innerShadow_10557_1679"/>
</filter>
<linearGradient id="paint0_linear_10557_1679" x1="82" y1="10" x2="82" y2="130" gradientUnits="userSpaceOnUse">
<stop offset="0.509615" stop-color="white"/>
<stop offset="0.846154" stop-color="#8E8989"/>
<stop offset="1" stop-color="#C3C3C3"/>
</linearGradient>
</defs>
</svg>
