<svg width="164" height="164" viewBox="0 0 164 164" fill="none" xmlns="http://www.w3.org/2000/svg">
<g filter="url(#filter0_dii_10760_1707)">
<rect x="22" y="10" width="120" height="120" rx="24" fill="#23282B"/>
<rect x="22" y="10" width="120" height="120" rx="24" stroke="url(#paint0_linear_10760_1707)" stroke-width="3"/>
<path d="M117 105H53L62 96H117V105ZM56 89L47 98V34H56V89ZM117 87H71L80 78H117V87ZM73 72L64 81V34H73V72ZM117 69H88L97 60H117V69ZM91 54L82 63V34H91V54ZM117 52H99V34H117V52Z" fill="#21915C"/>
</g>
<defs>
<filter id="filter0_dii_10760_1707" x="0.5" y="0.5" width="163" height="163" filterUnits="userSpaceOnUse" color-interpolation-filters="sRGB">
<feFlood flood-opacity="0" result="BackgroundImageFix"/>
<feColorMatrix in="SourceAlpha" type="matrix" values="0 0 0 0 0 0 0 0 0 0 0 0 0 0 0 0 0 0 127 0" result="hardAlpha"/>
<feOffset dy="12"/>
<feGaussianBlur stdDeviation="10"/>
<feComposite in2="hardAlpha" operator="out"/>
<feColorMatrix type="matrix" values="0 0 0 0 0 0 0 0 0 0 0 0 0 0 0 0 0 0 1 0"/>
<feBlend mode="normal" in2="BackgroundImageFix" result="effect1_dropShadow_10760_1707"/>
<feBlend mode="normal" in="SourceGraphic" in2="effect1_dropShadow_10760_1707" result="shape"/>
<feColorMatrix in="SourceAlpha" type="matrix" values="0 0 0 0 0 0 0 0 0 0 0 0 0 0 0 0 0 0 127 0" result="hardAlpha"/>
<feOffset/>
<feGaussianBlur stdDeviation="5.76923"/>
<feComposite in2="hardAlpha" operator="arithmetic" k2="-1" k3="1"/>
<feColorMatrix type="matrix" values="0 0 0 0 1 0 0 0 0 1 0 0 0 0 1 0 0 0 0.1 0"/>
<feBlend mode="normal" in2="shape" result="effect2_innerShadow_10760_1707"/>
<feColorMatrix in="SourceAlpha" type="matrix" values="0 0 0 0 0 0 0 0 0 0 0 0 0 0 0 0 0 0 127 0" result="hardAlpha"/>
<feOffset dx="1.15385" dy="1.15385"/>
<feGaussianBlur stdDeviation="0.576923"/>
<feComposite in2="hardAlpha" operator="arithmetic" k2="-1" k3="1"/>
<feColorMatrix type="matrix" values="0 0 0 0 1 0 0 0 0 1 0 0 0 0 1 0 0 0 0.1 0"/>
<feBlend mode="normal" in2="effect2_innerShadow_10760_1707" result="effect3_innerShadow_10760_1707"/>
</filter>
<linearGradient id="paint0_linear_10760_1707" x1="82" y1="10" x2="82" y2="130" gradientUnits="userSpaceOnUse">
<stop offset="0.509615" stop-color="#44FBF0"/>
<stop offset="0.846154" stop-color="#224846"/>
<stop offset="1" stop-color="#4AAEAB"/>
</linearGradient>
</defs>
</svg>
