<svg width="160" height="160" viewBox="0 0 160 160" fill="none" xmlns="http://www.w3.org/2000/svg">
<g filter="url(#filter0_dii_10557_1643)">
<rect x="21.5" y="9.5" width="117" height="117" rx="24" fill="#23282B"/>
<rect x="21.5" y="9.5" width="117" height="117" rx="24" stroke="url(#paint0_linear_10557_1643)" stroke-width="3"/>
<mask id="mask0_10557_1643" style="mask-type:luminance" maskUnits="userSpaceOnUse" x="38" y="27" width="82" height="83">
<path d="M120 27.1963H38.0084V109.276H120V27.1963Z" fill="white"/>
</mask>
<g mask="url(#mask0_10557_1643)">
<path d="M74.7809 92.8844C74.208 93.1835 73.5089 92.9561 73.2224 92.3832L70.0383 86.2298C69.7392 85.6569 69.9666 84.9578 70.5395 84.6755L75.9518 81.8747C76.5792 81.5462 76.7813 80.7332 76.3517 80.1605L70.2404 71.8506C69.8108 71.2776 68.9852 71.223 68.4842 71.7201L64.2008 76.0623C63.7583 76.5172 63.0172 76.5172 62.558 76.0623L57.6303 71.1936C57.1754 70.7513 57.1754 70.01 57.6303 69.5508L62.4992 64.623C62.9414 64.1682 63.6825 64.1682 64.1417 64.623L68.4842 68.9064C68.9852 69.4077 69.8276 69.336 70.2404 68.7633L76.2676 60.369C76.6802 59.7963 76.4824 58.9834 75.8548 58.6548L70.4005 55.9131C69.8276 55.6266 69.6002 54.9274 69.8866 54.3547L72.9992 48.1591C73.2856 47.5861 73.9847 47.3587 74.5576 47.6452L80.7532 50.7577C81.3259 51.0441 81.5533 51.7434 81.2671 52.3161L78.5251 57.7704C78.2093 58.4148 78.5251 59.1687 79.2115 59.3962L89.0505 62.5213C89.7202 62.7361 90.4362 62.2939 90.5499 61.5948L91.4638 55.5676C91.5649 54.94 92.1504 54.4978 92.7778 54.5947L99.6304 55.6349C100.258 55.7362 100.7 56.3216 100.604 56.9492L99.5631 63.8018C99.462 64.4294 98.8767 64.8716 98.2491 64.7747L92.2219 63.8608C91.5228 63.7471 90.8784 64.303 90.8952 65.0191L90.9543 75.3421C90.9543 76.0582 91.5986 76.5973 92.2977 76.471L98.3079 75.4852C98.9355 75.3842 99.5378 75.814 99.6348 76.4413L100.763 83.2813C100.865 83.9089 100.435 84.5113 99.8075 84.6082L92.9675 85.7368C92.3399 85.8379 91.7376 85.4083 91.6407 84.7807L90.6552 78.7705C90.5415 78.0714 89.8254 77.6419 89.1558 77.8567L79.359 81.0997C78.6894 81.3271 78.3735 82.0978 78.6894 82.7254L81.486 88.1377C81.7851 88.7104 81.5577 89.4096 80.9848 89.6961L74.7892 92.8801L74.7809 92.8844Z" fill="#5897EF"/>
<path d="M103.121 92.627L107.602 92.7366C108.242 92.7534 108.769 92.248 108.786 91.6077L108.895 87.1265C108.912 86.4863 108.406 85.9556 107.766 85.943L103.285 85.8334C102.645 85.8166 102.118 86.322 102.101 86.9623L101.992 91.4435C101.975 92.0837 102.48 92.6102 103.121 92.627Z" fill="#5897EF"/>
<path d="M108.973 96.5315L108.118 99.168C107.971 99.6272 108.219 100.116 108.679 100.267L111.311 101.127C111.77 101.274 112.259 101.026 112.41 100.566L113.265 97.934C113.412 97.475 113.164 96.9864 112.705 96.8347L110.073 95.9756C109.614 95.8281 109.125 96.0767 108.973 96.5357V96.5315Z" fill="#5897EF"/>
<path d="M66.6333 98.0685L67.9138 102.365C68.0948 102.975 68.7394 103.325 69.3541 103.144L73.6502 101.863C74.261 101.682 74.6106 101.038 74.4294 100.423L73.1491 96.1269C72.9679 95.516 72.3235 95.1664 71.7086 95.3476L67.4125 96.6281C66.8019 96.8091 66.4523 97.4535 66.6333 98.0685Z" fill="#5897EF"/>
<path d="M64.7755 104.766H62.0042C61.524 104.766 61.1324 105.158 61.1324 105.638V108.41C61.1324 108.89 61.524 109.281 62.0042 109.281H64.7755C65.2557 109.281 65.6473 108.89 65.6473 108.41V105.638C65.6473 105.158 65.2557 104.766 64.7755 104.766Z" fill="#5897EF"/>
<path d="M50.1995 65.0444L46.5099 67.5927C45.9834 67.9547 45.8528 68.6749 46.2151 69.2014L48.7632 72.891C49.1254 73.4175 49.8457 73.548 50.3721 73.1859L54.0617 70.6377C54.5882 70.2756 54.7187 69.5552 54.3565 69.0289L51.8084 65.3393C51.4462 64.8128 50.7259 64.6821 50.1995 65.0444Z" fill="#5897EF"/>
<path d="M43.1938 65.322L42.3388 62.6854C42.1914 62.2262 41.6986 61.9779 41.2395 62.1252L38.6029 62.9802C38.1438 63.1277 37.8953 63.6204 38.0427 64.0796L38.8977 66.7161C39.0451 67.1751 39.5379 67.4237 39.997 67.2762L42.6336 66.4212C43.0927 66.2739 43.3412 65.7812 43.1938 65.322Z" fill="#5897EF"/>
<path d="M76.5249 39.2091L72.9616 36.4883C72.4521 36.1008 71.7276 36.1977 71.3402 36.7031L68.6194 40.2663C68.2319 40.7759 68.3288 41.5004 68.8342 41.8879L72.3974 44.6087C72.907 44.9962 73.6315 44.8993 74.0188 44.3939L76.7396 40.8307C77.1272 40.3211 77.0302 39.5966 76.5207 39.2091H76.5249Z" fill="#5897EF"/>
<path d="M74.0843 32.6427L76.325 31.0169C76.7125 30.7347 76.801 30.1914 76.5189 29.7997L74.8929 27.559C74.6108 27.1715 74.0675 27.0831 73.6758 27.3653L71.4351 28.991C71.0476 29.2732 70.9591 29.8166 71.2415 30.2083L72.8672 32.449C73.1493 32.8364 73.6926 32.9249 74.0843 32.6427Z" fill="#5897EF"/>
<path d="M109.236 56.2577L110.723 52.0292C110.933 51.4269 110.617 50.7655 110.015 50.5551L105.786 49.0681C105.184 48.8577 104.523 49.1735 104.312 49.7759L102.825 54.0044C102.615 54.6067 102.931 55.2681 103.533 55.4785L107.762 56.9653C108.364 57.1759 109.025 56.86 109.236 56.2577Z" fill="#5897EF"/>
<path d="M114.747 51.903L116.988 53.5329C117.375 53.8152 117.923 53.7309 118.205 53.3392L119.835 51.0985C120.117 50.711 120.033 50.1635 119.641 49.8812L117.401 48.2513C117.013 47.969 116.466 48.0533 116.183 48.445L114.553 50.6857C114.271 51.0732 114.355 51.6207 114.747 51.903Z" fill="#5897EF"/>
</g>
</g>
<defs>
<filter id="filter0_dii_10557_1643" x="0" y="0" width="160" height="160" filterUnits="userSpaceOnUse" color-interpolation-filters="sRGB">
<feFlood flood-opacity="0" result="BackgroundImageFix"/>
<feColorMatrix in="SourceAlpha" type="matrix" values="0 0 0 0 0 0 0 0 0 0 0 0 0 0 0 0 0 0 127 0" result="hardAlpha"/>
<feOffset dy="12"/>
<feGaussianBlur stdDeviation="10"/>
<feComposite in2="hardAlpha" operator="out"/>
<feColorMatrix type="matrix" values="0 0 0 0 0 0 0 0 0 0 0 0 0 0 0 0 0 0 1 0"/>
<feBlend mode="normal" in2="BackgroundImageFix" result="effect1_dropShadow_10557_1643"/>
<feBlend mode="normal" in="SourceGraphic" in2="effect1_dropShadow_10557_1643" result="shape"/>
<feColorMatrix in="SourceAlpha" type="matrix" values="0 0 0 0 0 0 0 0 0 0 0 0 0 0 0 0 0 0 127 0" result="hardAlpha"/>
<feOffset/>
<feGaussianBlur stdDeviation="5.76923"/>
<feComposite in2="hardAlpha" operator="arithmetic" k2="-1" k3="1"/>
<feColorMatrix type="matrix" values="0 0 0 0 1 0 0 0 0 1 0 0 0 0 1 0 0 0 0.1 0"/>
<feBlend mode="normal" in2="shape" result="effect2_innerShadow_10557_1643"/>
<feColorMatrix in="SourceAlpha" type="matrix" values="0 0 0 0 0 0 0 0 0 0 0 0 0 0 0 0 0 0 127 0" result="hardAlpha"/>
<feOffset dx="1.15385" dy="1.15385"/>
<feGaussianBlur stdDeviation="0.576923"/>
<feComposite in2="hardAlpha" operator="arithmetic" k2="-1" k3="1"/>
<feColorMatrix type="matrix" values="0 0 0 0 1 0 0 0 0 1 0 0 0 0 1 0 0 0 0.1 0"/>
<feBlend mode="normal" in2="effect2_innerShadow_10557_1643" result="effect3_innerShadow_10557_1643"/>
</filter>
<linearGradient id="paint0_linear_10557_1643" x1="80" y1="9.5" x2="80" y2="126.5" gradientUnits="userSpaceOnUse">
<stop offset="0.509615" stop-color="white"/>
<stop offset="0.846154" stop-color="#8E8989"/>
<stop offset="1" stop-color="#C3C3C3"/>
</linearGradient>
</defs>
</svg>
