<svg width="164" height="164" viewBox="0 0 164 164" fill="none" xmlns="http://www.w3.org/2000/svg">
<g filter="url(#filter0_dii_10760_1690)">
<rect x="22" y="10" width="120" height="120" rx="24" fill="#23282B"/>
<rect x="22" y="10" width="120" height="120" rx="24" stroke="url(#paint0_linear_10760_1690)" stroke-width="3"/>
<path d="M73 115.5L53 95.5L73 76.5V115.5ZM113 95.5L93 115.5V76.5L113 95.5ZM53 93.5L56.5 79L71.5 76.5L53 93.5ZM109.5 79L113 93.5L94.5 76.5L109.5 79ZM99 44.5L85 66.5L89.5 79L83 82.5L76.5 79L81 66.5L67 44.5L83 23L99 44.5ZM56 78L54.5 75L60.5 73.5L56 78ZM111.5 75L110 78L105.5 73.5L111.5 75ZM71.5 75.5L58 77.5L62.5 73L71.5 75.5ZM108 77.5L94.5 75.5L103.5 73L108 77.5ZM61.5 72L54.5 73.5V60L61.5 72ZM111.5 73.5L104.5 72L111.5 60V73.5ZM64.5 64L62.5 71.5L56 60L64.5 64ZM103.5 71.5L101.5 64L110 60L103.5 71.5ZM79.5 66L66 63.5L55.5 58.5L66 45L79.5 66ZM110.5 58.5L100 63.5L86.5 66L100 45L110.5 58.5ZM65 44L55 57L61 38L65 44ZM111 57L101 44L105 38L111 57ZM66 43L62 37L82 23L66 43ZM104 37L100 43L84 23L104 37Z" fill="#32B1FF"/>
</g>
<defs>
<filter id="filter0_dii_10760_1690" x="0.5" y="0.5" width="163" height="163" filterUnits="userSpaceOnUse" color-interpolation-filters="sRGB">
<feFlood flood-opacity="0" result="BackgroundImageFix"/>
<feColorMatrix in="SourceAlpha" type="matrix" values="0 0 0 0 0 0 0 0 0 0 0 0 0 0 0 0 0 0 127 0" result="hardAlpha"/>
<feOffset dy="12"/>
<feGaussianBlur stdDeviation="10"/>
<feComposite in2="hardAlpha" operator="out"/>
<feColorMatrix type="matrix" values="0 0 0 0 0 0 0 0 0 0 0 0 0 0 0 0 0 0 1 0"/>
<feBlend mode="normal" in2="BackgroundImageFix" result="effect1_dropShadow_10760_1690"/>
<feBlend mode="normal" in="SourceGraphic" in2="effect1_dropShadow_10760_1690" result="shape"/>
<feColorMatrix in="SourceAlpha" type="matrix" values="0 0 0 0 0 0 0 0 0 0 0 0 0 0 0 0 0 0 127 0" result="hardAlpha"/>
<feOffset/>
<feGaussianBlur stdDeviation="5.76923"/>
<feComposite in2="hardAlpha" operator="arithmetic" k2="-1" k3="1"/>
<feColorMatrix type="matrix" values="0 0 0 0 1 0 0 0 0 1 0 0 0 0 1 0 0 0 0.1 0"/>
<feBlend mode="normal" in2="shape" result="effect2_innerShadow_10760_1690"/>
<feColorMatrix in="SourceAlpha" type="matrix" values="0 0 0 0 0 0 0 0 0 0 0 0 0 0 0 0 0 0 127 0" result="hardAlpha"/>
<feOffset dx="1.15385" dy="1.15385"/>
<feGaussianBlur stdDeviation="0.576923"/>
<feComposite in2="hardAlpha" operator="arithmetic" k2="-1" k3="1"/>
<feColorMatrix type="matrix" values="0 0 0 0 1 0 0 0 0 1 0 0 0 0 1 0 0 0 0.1 0"/>
<feBlend mode="normal" in2="effect2_innerShadow_10760_1690" result="effect3_innerShadow_10760_1690"/>
</filter>
<linearGradient id="paint0_linear_10760_1690" x1="82" y1="10" x2="82" y2="130" gradientUnits="userSpaceOnUse">
<stop offset="0.509615" stop-color="white"/>
<stop offset="0.846154" stop-color="#8E8989"/>
<stop offset="1" stop-color="#C3C3C3"/>
</linearGradient>
</defs>
</svg>
