<svg width="161" height="160" viewBox="0 0 161 160" fill="none" xmlns="http://www.w3.org/2000/svg">
<path d="M5.03639 80.8585C12.7793 71.148 16.9906 57.5706 15.6311 42.9687C14.9366 35.4369 12.8088 28.439 9.64667 22.2924C8.19857 20.0559 7.35631 17.401 7.35631 14.5586C7.35631 6.52178 14.0353 0 22.2658 0C30.4963 0 37.1753 6.52178 37.1753 14.5586C37.1753 14.7029 37.1605 14.8471 37.1605 14.977C37.1753 15.0347 37.1901 15.0924 37.1901 15.1646C36.4217 23.5621 39.2736 33.7343 45.6866 43.012C52.6758 53.0977 62.2658 59.7493 71.1612 61.6395C71.176 61.6395 71.176 61.6539 71.1908 61.6683C73.1117 62.0579 74.8997 62.8226 76.466 63.8615C76.466 63.8615 76.466 63.8615 76.4808 63.8615C83.5735 68.5075 93.9466 70.9748 105.221 70.0225C113.747 69.3011 121.401 66.7184 127.297 63.0102C121.859 54.454 113.363 46.9655 102.561 42.1318C95.1583 38.8132 87.4893 37.0962 80.1158 36.8509C80.0863 36.8509 80.0715 36.8509 80.0419 36.8365C71.9887 36.6056 65.5314 30.1849 65.5314 22.2635C65.5314 14.3421 72.2252 7.67608 80.4705 7.67608C86.9426 7.67608 92.4246 11.6873 94.5081 17.3C94.5229 17.3 94.5525 17.3 94.5525 17.3C99.015 29.3769 109.285 40.4148 123.603 46.8356C131.139 50.2119 138.941 51.9289 146.448 52.1309C146.551 52.1309 146.64 52.1598 146.699 52.2175C154.412 52.7658 160.5 59.0423 160.5 66.7184C160.5 74.3944 153.821 81.2769 145.591 81.2769C142.665 81.2769 139.931 80.4401 137.626 79.0116C137.582 78.9972 137.537 78.9972 137.493 78.9539C130.356 74.2213 119.865 71.7107 108.442 72.6774C96.0153 73.7307 85.4058 78.6942 79.3918 85.3747C79.377 85.3891 79.3474 85.3891 79.3327 85.4035C77.8255 87.1061 75.9488 88.4624 73.7915 89.3426C66.3589 92.9931 59.2218 100.265 54.5081 109.918C50.8731 117.363 49.292 125.01 49.558 131.763C60.1675 131.835 71.5011 128.603 81.6526 121.865C88.3907 117.392 93.8432 111.866 97.8772 105.835C97.8919 105.806 97.9215 105.791 97.9363 105.762C100.581 101.737 105.206 99.0676 110.467 99.0676C118.697 99.0676 125.376 105.589 125.376 113.626C125.376 121.663 118.697 128.185 110.467 128.185C109.669 128.185 108.886 128.098 108.117 127.983V127.997C95.2174 125.501 79.7021 128.387 66.6692 137.044C59.8129 141.603 54.2865 147.245 50.2377 153.406C50.2377 153.435 50.2082 153.435 50.1934 153.449C47.4893 157.403 42.879 160 37.6481 160C29.329 160 22.5761 153.406 22.5761 145.283C22.5761 139.396 26.1225 134.331 31.2499 131.965C38.712 128.271 45.8639 120.97 50.5924 111.289C55.838 100.525 56.8724 89.3282 54.1387 81.0028C53.5329 79.4156 53.1782 77.6986 53.1782 75.895C53.1782 75.1014 53.2669 74.3223 53.3851 73.5576C53.7841 65.4486 50.947 55.868 44.8738 47.0809C40.1601 40.2705 34.2496 35.0329 28.1764 31.7865C23.2854 40.6601 20.862 51.5682 21.9407 63.1256C22.6648 70.8594 24.8665 78.0161 28.1764 84.2781C28.2651 84.4368 28.3537 84.61 28.4424 84.7831C28.5015 84.8841 28.5458 84.9995 28.6049 85.1005C28.6049 85.1294 28.6197 85.1583 28.6345 85.1727C29.5063 87.0196 30.0235 89.0684 30.0235 91.2327C30.0235 99.1974 23.4184 105.647 15.2617 105.647C7.1051 105.647 0.5 99.1974 0.5 91.2327C0.5 87.135 2.25841 83.4557 5.06595 80.8297L5.03639 80.8585Z" fill="url(#paint0_linear_10964_141728)"/>
<defs>
<linearGradient id="paint0_linear_10964_141728" x1="160.5" y1="80" x2="0.5" y2="80" gradientUnits="userSpaceOnUse">
<stop stop-color="#1C5350"/>
<stop offset="0.5" stop-color="#44FBF0"/>
<stop offset="1" stop-color="#1C5350"/>
</linearGradient>
</defs>
</svg>
