<svg width="56" height="56" viewBox="0 0 56 56" fill="none" xmlns="http://www.w3.org/2000/svg">
<rect width="56" height="56" rx="28" fill="url(#paint0_linear_9582_102131)"/>
<path d="M41.1155 28.6717C39.6156 26.7294 38.7998 24.0137 39.0632 21.0931C39.1977 19.5866 39.6099 18.1869 40.2224 16.9574C40.503 16.5101 40.6661 15.9791 40.6661 15.4105C40.6661 13.803 39.3723 12.4986 37.7779 12.4986C36.1836 12.4986 34.8897 13.803 34.8897 15.4105C34.8897 15.4394 34.8926 15.4683 34.8926 15.4942C34.8898 15.5058 34.8869 15.5173 34.8869 15.5318C35.0357 17.2114 34.4833 19.246 33.241 21.1017C31.8871 23.1191 30.0294 24.4495 28.3062 24.8276C28.3033 24.8276 28.3033 24.8305 28.3005 24.8333C27.9283 24.9113 27.582 25.0642 27.2786 25.272C27.2786 25.272 27.2786 25.272 27.2757 25.272C25.9018 26.2013 23.8923 26.6948 21.7083 26.5043C20.0567 26.36 18.574 25.8434 17.4319 25.1017C18.4852 23.3903 20.1311 21.8925 22.2235 20.9257C23.6576 20.2619 25.1432 19.9185 26.5716 19.8694C26.5773 19.8694 26.5801 19.8694 26.5859 19.8665C28.1459 19.8204 29.3968 18.5361 29.3968 16.9517C29.3968 15.3673 28.1001 14.0339 26.5029 14.0339C25.2491 14.0339 24.1872 14.8362 23.7836 15.9589C23.7807 15.9589 23.775 15.9589 23.775 15.9589C22.9105 18.3745 20.9211 20.5823 18.1475 21.8665C16.6876 22.5419 15.1763 22.8853 13.7222 22.9257C13.7021 22.9257 13.6849 22.9315 13.6735 22.943C12.1793 23.0527 11 24.3081 11 25.8434C11 27.3788 12.2938 28.7554 13.8882 28.7554C14.4549 28.7554 14.9845 28.588 15.431 28.3023C15.4396 28.2994 15.4482 28.2994 15.4568 28.2908C16.8393 27.3442 18.8717 26.842 21.0843 27.0354C23.4916 27.246 25.5468 28.2388 26.7118 29.575C26.7147 29.5779 26.7204 29.5779 26.7233 29.5808C27.0152 29.9214 27.3788 30.1926 27.7967 30.3687C29.2365 31.0989 30.619 32.5534 31.5321 34.4841C32.2363 35.9733 32.5426 37.5029 32.491 38.8535C30.4358 38.868 28.2404 38.2215 26.2739 36.8737C24.9686 35.9791 23.9124 34.8737 23.1309 33.6674C23.1281 33.6616 23.1223 33.6587 23.1195 33.653C22.6071 32.8478 21.7112 32.3139 20.6922 32.3139C19.0978 32.3139 17.804 33.6183 17.804 35.2258C17.804 36.8333 19.0978 38.1378 20.6922 38.1378C20.8467 38.1378 20.9984 38.1205 21.1473 38.0974V38.1003C23.6462 37.601 26.6517 38.1782 29.1764 39.9098C30.5045 40.8218 31.5751 41.9502 32.3594 43.1825C32.3594 43.1883 32.3651 43.1883 32.368 43.1912C32.8918 43.982 33.7849 44.5015 34.7982 44.5015C36.4097 44.5015 37.7178 43.1826 37.7178 41.5577C37.7178 40.3802 37.0308 39.3673 36.0376 38.8939C34.5921 38.1551 33.2066 36.6948 32.2907 34.7583C31.2745 32.6054 31.0741 30.3658 31.6037 28.7006C31.7211 28.3831 31.7897 28.0397 31.7897 27.6789C31.7897 27.5202 31.7726 27.3644 31.7497 27.2114C31.6724 25.5895 32.222 23.6732 33.3984 21.9156C34.3115 20.5534 35.4565 19.5058 36.633 18.8564C37.5804 20.6313 38.0499 22.8131 37.8409 25.1248C37.7006 26.6717 37.2741 28.1032 36.633 29.3557C36.6158 29.3875 36.5986 29.4221 36.5814 29.4567C36.57 29.4769 36.5614 29.5 36.55 29.5202C36.55 29.526 36.5471 29.5318 36.5442 29.5346C36.3753 29.904 36.2752 30.3139 36.2752 30.7468C36.2752 32.3398 37.5547 33.6299 39.1347 33.6299C40.7148 33.6299 41.9943 32.3398 41.9943 30.7468C41.9943 29.9271 41.6536 29.1912 41.1098 28.666L41.1155 28.6717Z" fill="#0E0E0E"/>
<defs>
<linearGradient id="paint0_linear_9582_102131" x1="28" y1="0" x2="28" y2="56" gradientUnits="userSpaceOnUse">
<stop offset="0.610577" stop-color="white"/>
<stop offset="1" stop-color="#BFBFBF"/>
</linearGradient>
</defs>
</svg>
