<svg width="24" height="24" viewBox="0 0 24 24" fill="none" xmlns="http://www.w3.org/2000/svg">
<rect width="24" height="24" rx="12" fill="#50AF95"/>
<path fill-rule="evenodd" clip-rule="evenodd" d="M13.4558 12.4948C13.3744 12.5009 12.9543 12.526 12.0172 12.526C11.2718 12.526 10.7426 12.5036 10.557 12.4948C7.67645 12.3681 5.5264 11.8669 5.5264 11.2668C5.5264 10.6666 7.67645 10.1661 10.557 10.0374V11.9956C10.7453 12.0091 11.2847 12.041 12.0301 12.041C12.9245 12.041 13.3724 12.0037 13.453 11.9963V10.0387C16.3274 10.1668 18.4728 10.668 18.4728 11.2668C18.4728 11.8655 16.3281 12.3668 13.453 12.4941L13.4558 12.4948ZM13.4558 9.83621V8.08392H17.4672V5.41179H6.54552V8.08392H10.5563V9.83554C7.29631 9.98523 4.84473 10.6307 4.84473 11.4043C4.84473 12.1778 7.29631 12.8226 10.5563 12.973V18.5882H13.4551V12.971C16.7076 12.8213 19.1551 12.1764 19.1551 11.4036C19.1551 10.6307 16.7096 9.98591 13.4551 9.83554L13.4558 9.83621Z" fill="white"/>
</svg>
